HIERARCHY
ROOT Hips
{
	OFFSET	0.00	0.00	0.00
	CHANNELS 6 Xposition Yposition Zposition Zrotation Xrotation Yrotation
	JOINT LeftUpLeg
	{
		OFFSET	 0.126116	-0.014019	-0.065224
		CHANNELS 3 Zrotation Xrotation Yrotation
		JOINT LeftLeg
		{
			OFFSET	 0.000000	 0.000000	 0.569914
			CHANNELS 3 Zrotation Xrotation Yrotation
			JOINT LeftFoot
			{
				OFFSET	 0.000000	 0.000000	 0.544423
				CHANNELS 3 Zrotation Xrotation Yrotation
				JOINT LeftToeBase
				{
					OFFSET	 0.000000	 0.000000	 0.207117
					CHANNELS 3 Zrotation Xrotation Yrotation
					End Site
					{
						OFFSET	 0.000000	 0.000000	 0.207117
					}
				}
			}
		}
	}
	JOINT RightUpLeg
	{
		OFFSET	-0.124023	-0.008373	-0.065224
		CHANNELS 3 Zrotation Xrotation Yrotation
		JOINT RightLeg
		{
			OFFSET	 0.000000	 0.000000	 0.570047
			CHANNELS 3 Zrotation Xrotation Yrotation
			JOINT RightFoot
			{
				OFFSET	 0.000000	 0.000000	 0.544354
				CHANNELS 3 Zrotation Xrotation Yrotation
				JOINT RightToeBase
				{
					OFFSET	 0.000000	 0.000000	 0.207540
					CHANNELS 3 Zrotation Xrotation Yrotation
					End Site
					{
						OFFSET	 0.000000	 0.000000	 0.207540
					}
				}
			}
		}
	}
	JOINT Spine
	{
		OFFSET	 0.000184	-0.007763	 0.117403
		CHANNELS 3 Zrotation Xrotation Yrotation
		JOINT Spine1
		{
			OFFSET	 0.000000	 0.000000	 0.137269
			CHANNELS 3 Zrotation Xrotation Yrotation
			JOINT Spine2
			{
				OFFSET	 0.000000	 0.000000	 0.156879
				CHANNELS 3 Zrotation Xrotation Yrotation
				JOINT LeftShoulder
				{
					OFFSET	 0.080501	-0.002496	 0.160144
					CHANNELS 3 Zrotation Xrotation Yrotation
					JOINT LeftArm
					{
						OFFSET	 0.000000	 0.000000	 0.164363
						CHANNELS 3 Zrotation Xrotation Yrotation
						JOINT LeftForeArm
						{
							OFFSET	 0.000000	 0.000000	 0.364576
							CHANNELS 3 Zrotation Xrotation Yrotation
							JOINT LeftHand
							{
								OFFSET	 0.000000	 0.000000	 0.360812
								CHANNELS 3 Zrotation Xrotation Yrotation
								JOINT LeftHandIndex1
								{
									OFFSET	 0.000000	 0.000000	 0.086006
									CHANNELS 3 Zrotation Xrotation Yrotation
									JOINT LeftHandIndex2
									{
										OFFSET	 0.000000	 0.000000	 0.047236
										CHANNELS 3 Zrotation Xrotation Yrotation
										JOINT LeftHandIndex3
										{
											OFFSET	-0.004284	-0.000551	 0.038166
											CHANNELS 3 Zrotation Xrotation Yrotation
											End Site
											{
												OFFSET	-0.004284	-0.000551	 0.038166
											}
										}
									}
								}
							}
						}
					}
				}
				JOINT Neck
				{
					OFFSET	 0.000000	 0.000000	 0.176489
					CHANNELS 3 Zrotation Xrotation Yrotation
					JOINT Head
					{
						OFFSET	 0.000000	-0.001747	 0.077940
						CHANNELS 3 Zrotation Xrotation Yrotation
						End Site
						{
							OFFSET	 0.000000	-0.001747	 0.077940
						}
					}
				}
				JOINT RightShoulder
				{
					OFFSET	-0.080363	 0.000306	 0.159706
					CHANNELS 3 Zrotation Xrotation Yrotation
					JOINT RightArm
					{
						OFFSET	 0.000000	 0.000000	 0.164196
						CHANNELS 3 Zrotation Xrotation Yrotation
						JOINT RightForeArm
						{
							OFFSET	 0.000000	 0.000000	 0.365611
							CHANNELS 3 Zrotation Xrotation Yrotation
							JOINT RightHand
							{
								OFFSET	 0.000000	 0.000000	 0.360648
								CHANNELS 3 Zrotation Xrotation Yrotation
								JOINT RightHandIndex1
								{
									OFFSET	 0.000000	 0.000000	 0.069977
									CHANNELS 3 Zrotation Xrotation Yrotation
									JOINT RightHandIndex2
									{
										OFFSET	 0.000000	 0.000000	 0.052305
										CHANNELS 3 Zrotation Xrotation Yrotation
										JOINT RightHandIndex3
										{
											OFFSET	 0.009002	-0.000782	 0.042196
											CHANNELS 3 Zrotation Xrotation Yrotation
											End Site
											{
												OFFSET	 0.009002	-0.000782	 0.042196
											}
										}
									}
								}
							}
						}
					}
				}
			}
		}
	}
}
MOTION
Frames:    10
Frame Time: 0.03333334
 2.713985	 0.020962	-0.373893	 66.972870	-2.343551	-1.118091	 7.239673	 19.938840	-176.755200	-3.575909	-11.633420	 1.465122	 3.456967	 84.263020	-0.147410	-2.308611	 39.040450	-0.250204	 4.795805	-35.571640	-178.003500	 1.701461	-44.627600	 5.575239	 103.487200	 89.868780	-97.527310	 2.372723	 30.776680	 0.052529	 34.489460	 3.574079	 2.354839	-1.132986	-1.491917	 0.792598	-1.167259	-3.984921	-0.628961	-91.776180	 78.527420	-180.000000	 35.579440	 60.613340	-53.567410	-5.422675	-7.531851	-36.035260	 3.883523	-2.095151	-5.368939	-3.812334	 37.924440	-2.927599	-2.450526	 36.184240	 0.754587	-1.378229	 35.397820	-2.634230	 1.213914	 2.148093	-4.947796	 0.994983	-9.125274	 3.359043	 89.782120	 78.203870	 180.000000	-38.155120	 71.899570	 35.672070	-3.986087	-8.535480	 22.572050	-13.465590	-3.249113	 9.563585	 6.437017	 35.671460	-0.771858	 2.830251	 35.756010	-7.813440	-2.350882	 35.473990	 5.254307
 2.740616	 0.008688	-0.374905	 67.230480	-2.092942	-1.239424	 7.341882	 21.100160	-176.912400	-3.528948	-11.629400	 1.497164	 3.812908	 84.430040	-0.364841	-2.293047	 40.435340	-0.287362	 5.222464	-35.895900	-177.618800	 0.420927	-41.230300	 4.503844	 132.444400	 89.718840	-126.906300	 2.367969	 31.594070	 0.070957	 33.006290	 3.402499	 2.284659	-1.165584	-1.571792	 0.757782	-1.186228	-4.050131	-0.648261	-91.776180	 78.527400	-180.000000	 35.883450	 60.506370	-54.145990	-3.632714	-9.032660	-36.895470	 3.773573	-2.118557	-5.364682	-3.812334	 37.924440	-2.927599	-2.450526	 36.184240	 0.754587	-1.378229	 35.397820	-2.634230	 1.225881	 2.177696	-4.965931	 1.016982	-9.257030	 3.625651	 89.782120	 78.203930	 180.000000	-37.466830	 72.337600	 34.854760	-6.055598	-9.368243	 22.116050	-13.682970	-3.257027	 9.558092	 6.437017	 35.671460	-0.771858	 2.830251	 35.756010	-7.813440	-2.350882	 35.473990	 5.254307
 2.758468	 0.000403	-0.375632	 67.410030	-1.989878	-1.285515	 7.401944	 21.919390	-177.041300	-3.462019	-11.626180	 1.521806	 4.066621	 84.422410	-0.502902	-2.279834	 41.523990	-0.317266	 5.258549	-36.058080	-177.531000	-0.020061	-39.602980	 4.037575	 147.647000	 89.555010	-142.314100	 2.364420	 32.168270	 0.084042	 31.917110	 3.327270	 2.199482	-1.194371	-1.618407	 0.719525	-1.190259	-4.094440	-0.666392	-91.776180	 78.527400	-180.000000	 36.194910	 60.534730	-54.557630	-2.484192	-10.013250	-37.253620	 3.744556	-2.116396	-5.365123	-3.812334	 37.924440	-2.927599	-2.450526	 36.184240	 0.754587	-1.378229	 35.397820	-2.634230	 1.226611	 2.157875	-4.983768	 1.030742	-9.298616	 3.827864	 89.782100	 78.203870	-180.000000	-36.989360	 72.601680	 34.309910	-7.423618	-9.884957	 21.771650	-13.858060	-3.262718	 9.554000	 6.437017	 35.671460	-0.771858	 2.830251	 35.756010	-7.813440	-2.350882	 35.473990	 5.254307
 2.782969	-0.011004	-0.376527	 67.661600	-1.905937	-1.316605	 7.521491	 23.048440	-177.339700	-3.297270	-11.620430	 1.565736	 4.451881	 84.243910	-0.670276	-2.257660	 43.189480	-0.364698	 5.160080	-36.068100	-177.428700	-0.222556	-38.240320	 3.700092	 152.765600	 89.387700	-147.574100	 2.360960	 32.704710	 0.096377	 30.332570	 3.263023	 2.070444	-1.235401	-1.669248	 0.649322	-1.183319	-4.137697	-0.695978	-91.776180	 78.527420	-180.000000	 36.650050	 60.700670	-54.966240	-0.967772	-11.297970	-37.477120	 3.749867	-2.115350	-5.365339	-3.812334	 37.924440	-2.927599	-2.450526	 36.184240	 0.754587	-1.378229	 35.397820	-2.634230	 1.233795	 2.107264	-5.010975	 1.052386	-9.319748	 4.092176	 89.782090	 78.203830	-180.000000	-36.373520	 72.918970	 33.621860	-9.258539	-10.534130	 21.278290	-14.103660	-3.270771	 9.548051	 6.437017	 35.671460	-0.771858	 2.830251	 35.756010	-7.813440	-2.350882	 35.473990	 5.254307
 2.808185	-0.023013	-0.377447	 67.916980	-1.944752	-1.323276	 7.680327	 24.208660	-177.762000	-3.028901	-11.612280	 1.625571	 4.870812	 83.785270	-0.776291	-2.234603	 44.746240	-0.411080	 4.995053	-35.903450	-177.418600	-0.031939	-37.770110	 3.685744	 152.113100	 89.373490	-146.846900	 2.361024	 32.694070	 0.096138	 28.618080	 3.216365	 1.957371	-1.272259	-1.703634	 0.561275	-1.159789	-4.145707	-0.729310	-91.776180	 78.527420	-180.000000	 37.225380	 60.965010	-55.390560	 0.542148	-12.526770	-37.437000	 3.770994	-2.115634	-5.365255	-3.812334	 37.924440	-2.927599	-2.450526	 36.184240	 0.754587	-1.378229	 35.397820	-2.634230	 1.256125	 2.074346	-5.028427	 1.084283	-9.331503	 4.317188	 89.782070	 78.203930	-180.000000	-35.837970	 73.189990	 33.031330	-11.114480	-11.141220	 20.764180	-14.350690	-3.279241	 9.541694	 6.437017	 35.671460	-0.771858	 2.830251	 35.756010	-7.813440	-2.350882	 35.473990	 5.254307
 2.836970	-0.037241	-0.378531	 68.200440	-2.003588	-1.324072	 7.895375	 25.527800	-178.351600	-2.615659	-11.600380	 1.709272	 5.337698	 82.905970	-0.787503	-2.211768	 46.146040	-0.454660	 4.885201	-35.623260	-177.518300	 0.422116	-37.973940	 3.945772	 141.727500	 89.567950	-136.172500	 2.365654	 31.973430	 0.079587	 26.552430	 3.167475	 1.885341	-1.307912	-1.718908	 0.451553	-1.114979	-4.093495	-0.770135	-91.776180	 78.527420	-180.000000	 37.994210	 61.344060	-55.799740	 2.252116	-13.812830	-37.148350	 3.777500	-2.117690	-5.364817	-3.812334	 37.924440	-2.927599	-2.450526	 36.184240	 0.754587	-1.378229	 35.397820	-2.634230	 1.303770	 2.113418	-5.055345	 1.132718	-9.368163	 4.546325	 89.782120	 78.203870	 180.000000	-35.396190	 73.433430	 32.545830	-13.226390	-11.779360	 20.185230	-14.620100	-3.289120	 9.534030	 6.437017	 35.671460	-0.771858	 2.830251	 35.756010	-7.813440	-2.350882	 35.473990	 5.254307
 2.864267	-0.050944	-0.379464	 68.463230	-2.069409	-1.311674	 8.122828	 26.743820	-178.985900	-2.195848	-11.588570	 1.788340	 5.677083	 81.721960	-0.670426	-2.188643	 47.444210	-0.496844	 4.844924	-35.059500	-177.613300	 0.913477	-38.660610	 4.336549	 92.723890	 89.761790	-86.833600	 2.372327	 30.846210	 0.054091	 24.511570	 3.104650	 1.856978	-1.343615	-1.719881	 0.338990	-1.055403	-3.993905	-0.817070	-91.776180	 78.527400	-180.000000	 38.763980	 61.775990	-56.035510	 3.854003	-14.899330	-36.658490	 3.771510	-2.101750	-5.367757	-3.812334	 37.924440	-2.927599	-2.450526	 36.184240	 0.754587	-1.378229	 35.397820	-2.634230	 1.367227	 2.237612	-5.099710	 1.186665	-9.440067	 4.753274	 89.782090	 78.203830	-180.000000	-35.017250	 73.624720	 32.137480	-15.153410	-12.336920	 19.667810	-14.853160	-3.297851	 9.526975	 6.437017	 35.671460	-0.771858	 2.830251	 35.756010	-7.813440	-2.350882	 35.473990	 5.254307
 2.890905	-0.064572	-0.380434	 68.731410	-2.131937	-1.281326	 8.377520	 27.888390	-179.696700	-1.796678	-11.577850	 1.857412	 5.860750	 80.224950	-0.419620	-2.161446	 48.843060	-0.544392	 4.758773	-34.377670	-177.809300	 1.511294	-39.614050	 4.819539	 31.420550	 89.599440	-25.167100	 2.377398	 29.906800	 0.033177	 22.422180	 3.007068	 1.829463	-1.388127	-1.723702	 0.221104	-0.985018	-3.876370	-0.875923	-91.776180	 78.527400	-180.000000	 39.533440	 62.261990	-56.125650	 5.440397	-15.852020	-35.984190	 3.785946	-2.096693	-5.368722	-3.812334	 37.924440	-2.927599	-2.450526	 36.184240	 0.754587	-1.378229	 35.397820	-2.634230	 1.436546	 2.408271	-5.127325	 1.243144	-9.519014	 4.914655	 89.782120	 78.203870	 180.000000	-34.461200	 73.791630	 31.467660	-16.962130	-12.852900	 19.201800	-15.055530	-3.304938	 9.520823	 6.437017	 35.671460	-0.771858	 2.830251	 35.756010	-7.813440	-2.350882	 35.473990	 5.254307
 2.920629	-0.080022	-0.381414	 69.071180	-2.195723	-1.229493	 8.670699	 29.114810	 179.434700	-1.360487	-11.567450	 1.921985	 5.878983	 78.093650	 0.029235	-2.132077	 50.221940	-0.593636	 4.495361	-33.583340	-178.172800	 2.479373	-40.837540	 5.503329	 11.634100	 89.092380	-4.889678	 2.380399	 29.306550	 0.019976	 19.970600	 2.869496	 1.764526	-1.457568	-1.735483	 0.094645	-0.899745	-3.739368	-0.956946	-91.776180	 78.527380	-180.000000	 40.399680	 62.877540	-56.072800	 7.282996	-16.801840	-35.000900	 3.857263	-2.101870	-5.367649	-3.812334	 37.924440	-2.927599	-2.450526	 36.184240	 0.754587	-1.378229	 35.397820	-2.634230	 1.512769	 2.621547	-5.128365	 1.300924	-9.569889	 5.034805	 89.782120	 78.203870	 180.000000	-33.680860	 73.950390	 30.480880	-18.908810	-13.414020	 18.736360	-15.244170	-3.311168	 9.515250	 6.437017	 35.671460	-0.771858	 2.830251	 35.756010	-7.813440	-2.350882	 35.473990	 5.254307
 2.950294	-0.095405	-0.381749	 69.483090	-2.247581	-1.152666	 8.983405	 30.282020	 178.516400	-0.998340	-11.560190	 1.965978	 5.696867	 75.381490	 0.636887	-2.111078	 51.136820	-0.627734	 4.032595	-32.761290	-178.554900	 3.485296	-42.092130	 6.123086	 4.977462	 88.265620	 2.126950	 2.382978	 28.761620	 0.008091	 17.405610	 2.734621	 1.628754	-1.536884	-1.749127	-0.016116	-0.818881	-3.628142	-1.041526	-91.776180	 78.527400	-180.000000	 41.284480	 63.558760	-55.925230	 9.239474	-17.631370	-33.769960	 4.018544	-2.109661	-5.365960	-3.812334	 37.924440	-2.927599	-2.450526	 36.184240	 0.754587	-1.378229	 35.397820	-2.634230	 1.576559	 2.825025	-5.101596	 1.345433	-9.574141	 5.095504	 89.782120	 78.203930	 180.000000	-32.880040	 74.072680	 29.448180	-20.740050	-13.966300	 18.348260	-15.343920	-3.315782	 9.511493	 6.437017	 35.671460	-0.771858	 2.830251	 35.756010	-7.813440	-2.350882	 35.473990	 5.254307
